<svg width="71" height="71" viewBox="0 0 71 71" fill="none" xmlns="http://www.w3.org/2000/svg">
<path d="M64.1921 0H43.4132C41.6816 0 40.1974 0.618419 38.9605 1.85526C37.7237 3.0921 37.1053 4.57631 37.1053 6.3079V27.0869C37.1053 28.8184 37.7237 30.3027 38.9605 31.5395C40.1974 32.7763 41.6816 33.3948 43.4132 33.3948H64.1921C65.9237 33.3948 67.4079 32.7763 68.6448 31.5395C69.8816 30.3027 70.5 28.8184 70.5 27.0869V6.3079C70.5 4.57631 69.8816 3.0921 68.6448 1.85526C67.4079 0.618419 65.9237 0 64.1921 0Z" fill="white"/>
<path d="M27.0868 37.1053H6.30788C4.5763 37.1053 3.09209 37.7237 1.85524 38.9605C0.618402 40.1974 0 41.6816 0 43.4132V64.1921C0 65.9237 0.618402 67.4079 1.85524 68.6447C3.09209 69.8816 4.5763 70.5 6.30788 70.5H27.0868C28.8184 70.5 30.3026 69.8816 31.5395 68.6447C32.7763 67.4079 33.3947 65.9237 33.3947 64.1921V43.4132C33.3947 41.6816 32.7763 40.1974 31.5395 38.9605C30.3026 37.7237 28.8184 37.1053 27.0868 37.1053Z" fill="white"/>
</svg>
