<svg width="303" height="160" viewBox="0 0 303 160" fill="none" xmlns="http://www.w3.org/2000/svg">
<path d="M236.094 0H246.139C246.976 0 247.693 0.298954 248.291 0.896863C248.889 1.49477 249.188 2.21226 249.188 3.04934V13.0942C249.188 13.9313 248.889 14.6488 248.291 15.2467C247.693 15.8446 246.976 16.1436 246.139 16.1436H236.094C235.257 16.1436 234.539 15.8446 233.941 15.2467C233.344 14.6488 233.045 13.9313 233.045 13.0942V3.04934C233.045 2.21226 233.344 1.49477 233.941 0.896863C234.539 0.298954 235.257 0 236.094 0ZM254.031 0H264.076C264.913 0 265.631 0.298954 266.229 0.896863C266.826 1.49477 267.125 2.21226 267.125 3.04934V13.0942C267.125 13.9313 266.826 14.6488 266.229 15.2467C265.631 15.8446 264.913 16.1436 264.076 16.1436H254.031C253.194 16.1436 252.477 15.8446 251.879 15.2467C251.281 14.6488 250.982 13.9313 250.982 13.0942V3.04934C250.982 2.21226 251.281 1.49477 251.879 0.896863C252.477 0.298954 253.194 0 254.031 0ZM271.968 0H282.013C282.85 0 283.568 0.298954 284.166 0.896863C284.764 1.49477 285.063 2.21226 285.063 3.04934V13.0942C285.063 13.9313 284.764 14.6488 284.166 15.2467C283.568 15.8446 282.85 16.1436 282.013 16.1436H271.968C271.131 16.1436 270.414 15.8446 269.816 15.2467C269.218 14.6488 268.919 13.9313 268.919 13.0942V3.04934C268.919 2.21226 269.218 1.49477 269.816 0.896863C270.414 0.298954 271.131 0 271.968 0ZM218.157 17.9373H228.202C229.039 17.9373 229.756 18.2362 230.354 18.8341C230.952 19.4321 231.251 20.1495 231.251 20.9866V31.0315C231.251 31.8686 230.952 32.5861 230.354 33.184C229.756 33.7819 229.039 34.0808 228.202 34.0808H218.157C217.32 34.0808 216.602 33.7819 216.004 33.184C215.406 32.5861 215.107 31.8686 215.107 31.0315V20.9866C215.107 20.1495 215.406 19.4321 216.004 18.8341C216.602 18.2362 217.32 17.9373 218.157 17.9373ZM289.906 17.9373H299.951C300.788 17.9373 301.505 18.2362 302.103 18.8341C302.701 19.4321 303 20.1495 303 20.9866V31.0315C303 31.8686 302.701 32.5861 302.103 33.184C301.505 33.7819 300.788 34.0808 299.951 34.0808H289.906C289.069 34.0808 288.351 33.7819 287.753 33.184C287.155 32.5861 286.856 31.8686 286.856 31.0315V20.9866C286.856 20.1495 287.155 19.4321 287.753 18.8341C288.351 18.2362 289.069 17.9373 289.906 17.9373ZM289.906 35.8746H299.951C300.788 35.8746 301.505 36.1735 302.103 36.7714C302.701 37.3693 303 38.0868 303 38.9239V48.9688C303 49.8059 302.701 50.5233 302.103 51.1213C301.505 51.7192 300.788 52.0181 299.951 52.0181H289.906C289.069 52.0181 288.351 51.7192 287.753 51.1213C287.155 50.5233 286.856 49.8059 286.856 48.9688V38.9239C286.856 38.0868 287.155 37.3693 287.753 36.7714C288.351 36.1735 289.069 35.8746 289.906 35.8746ZM254.031 53.8118H264.076C264.913 53.8118 265.631 54.1108 266.229 54.7087C266.826 55.3066 267.125 56.0241 267.125 56.8612V66.9061C267.125 67.7431 266.826 68.4606 266.229 69.0585C265.631 69.6564 264.913 69.9554 264.076 69.9554H254.031C253.194 69.9554 252.477 69.6564 251.879 69.0585C251.281 68.4606 250.982 67.7431 250.982 66.9061V56.8612C250.982 56.0241 251.281 55.3066 251.879 54.7087C252.477 54.1108 253.194 53.8118 254.031 53.8118ZM271.968 53.8118H282.013C282.85 53.8118 283.568 54.1108 284.166 54.7087C284.764 55.3066 285.063 56.0241 285.063 56.8612V66.9061C285.063 67.7431 284.764 68.4606 284.166 69.0585C283.568 69.6564 282.85 69.9554 282.013 69.9554H271.968C271.131 69.9554 270.414 69.6564 269.816 69.0585C269.218 68.4606 268.919 67.7431 268.919 66.9061V56.8612C268.919 56.0241 269.218 55.3066 269.816 54.7087C270.414 54.1108 271.131 53.8118 271.968 53.8118ZM236.094 71.7491H246.139C246.976 71.7491 247.693 72.0481 248.291 72.646C248.889 73.2439 249.188 73.9614 249.188 74.7985V84.8433C249.188 85.6804 248.889 86.3979 248.291 86.9958C247.693 87.5937 246.976 87.8927 246.139 87.8927H236.094C235.257 87.8927 234.539 87.5937 233.941 86.9958C233.344 86.3979 233.045 85.6804 233.045 84.8433V74.7985C233.045 73.9614 233.344 73.2439 233.941 72.646C234.539 72.0481 235.257 71.7491 236.094 71.7491ZM218.157 89.6864H228.202C229.039 89.6864 229.756 89.9854 230.354 90.5833C230.952 91.1812 231.251 91.8987 231.251 92.7357V102.781C231.251 103.618 230.952 104.335 230.354 104.933C229.756 105.531 229.039 105.83 228.202 105.83H218.157C217.32 105.83 216.602 105.531 216.004 104.933C215.406 104.335 215.107 103.618 215.107 102.781V92.7357C215.107 91.8987 215.406 91.1812 216.004 90.5833C216.602 89.9854 217.32 89.6864 218.157 89.6864ZM218.157 107.624H228.202C229.039 107.624 229.756 107.923 230.354 108.521C230.952 109.118 231.251 109.836 231.251 110.673V120.718C231.251 121.555 230.952 122.272 230.354 122.87C229.756 123.468 229.039 123.767 228.202 123.767H218.157C217.32 123.767 216.602 123.468 216.004 122.87C215.406 122.272 215.107 121.555 215.107 120.718V110.673C215.107 109.836 215.406 109.118 216.004 108.521C216.602 107.923 217.32 107.624 218.157 107.624ZM236.094 107.624H246.139C246.976 107.624 247.693 107.923 248.291 108.521C248.889 109.118 249.188 109.836 249.188 110.673V120.718C249.188 121.555 248.889 122.272 248.291 122.87C247.693 123.468 246.976 123.767 246.139 123.767H236.094C235.257 123.767 234.539 123.468 233.941 122.87C233.344 122.272 233.045 121.555 233.045 120.718V110.673C233.045 109.836 233.344 109.118 233.941 108.521C234.539 107.923 235.257 107.624 236.094 107.624ZM254.031 107.624H264.076C264.913 107.624 265.631 107.923 266.229 108.521C266.826 109.118 267.125 109.836 267.125 110.673V120.718C267.125 121.555 266.826 122.272 266.229 122.87C265.631 123.468 264.913 123.767 264.076 123.767H254.031C253.194 123.767 252.477 123.468 251.879 122.87C251.281 122.272 250.982 121.555 250.982 120.718V110.673C250.982 109.836 251.281 109.118 251.879 108.521C252.477 107.923 253.194 107.624 254.031 107.624ZM271.968 107.624H282.013C282.85 107.624 283.568 107.923 284.166 108.521C284.764 109.118 285.063 109.836 285.063 110.673V120.718C285.063 121.555 284.764 122.272 284.166 122.87C283.568 123.468 282.85 123.767 282.013 123.767H271.968C271.131 123.767 270.414 123.468 269.816 122.87C269.218 122.272 268.919 121.555 268.919 120.718V110.673C268.919 109.836 269.218 109.118 269.816 108.521C270.414 107.923 271.131 107.624 271.968 107.624ZM289.906 107.624H299.951C300.788 107.624 301.505 107.923 302.103 108.521C302.701 109.118 303 109.836 303 110.673V120.718C303 121.555 302.701 122.272 302.103 122.87C301.505 123.468 300.788 123.767 299.951 123.767H289.906C289.069 123.767 288.351 123.468 287.753 122.87C287.155 122.272 286.856 121.555 286.856 120.718V110.673C286.856 109.836 287.155 109.118 287.753 108.521C288.351 107.923 289.069 107.624 289.906 107.624Z" fill="white"/>
<path d="M110.603 0H120.648C121.485 0 122.202 0.298954 122.8 0.896863C123.398 1.49477 123.697 2.21226 123.697 3.04934V13.0942C123.697 13.9313 123.398 14.6488 122.8 15.2467C122.202 15.8446 121.485 16.1436 120.648 16.1436H110.603C109.766 16.1436 109.048 15.8446 108.45 15.2467C107.852 14.6488 107.553 13.9313 107.553 13.0942V3.04934C107.553 2.21226 107.852 1.49477 108.45 0.896863C109.048 0.298954 109.766 0 110.603 0ZM110.603 17.9373H120.648C121.485 17.9373 122.202 18.2362 122.8 18.8341C123.398 19.4321 123.697 20.1495 123.697 20.9866V31.0315C123.697 31.8686 123.398 32.5861 122.8 33.184C122.202 33.7819 121.485 34.0808 120.648 34.0808H110.603C109.766 34.0808 109.048 33.7819 108.45 33.184C107.852 32.5861 107.553 31.8686 107.553 31.0315V20.9866C107.553 20.1495 107.852 19.4321 108.45 18.8341C109.048 18.2362 109.766 17.9373 110.603 17.9373ZM110.603 35.8746H120.648C121.485 35.8746 122.202 36.1735 122.8 36.7714C123.398 37.3693 123.697 38.0868 123.697 38.9239V48.9688C123.697 49.8059 123.398 50.5233 122.8 51.1213C122.202 51.7192 121.485 52.0181 120.648 52.0181H110.603C109.766 52.0181 109.048 51.7192 108.45 51.1213C107.852 50.5233 107.553 49.8059 107.553 48.9688V38.9239C107.553 38.0868 107.852 37.3693 108.45 36.7714C109.048 36.1735 109.766 35.8746 110.603 35.8746ZM146.477 35.8746H156.522C157.359 35.8746 158.077 36.1735 158.675 36.7714C159.273 37.3693 159.572 38.0868 159.572 38.9239V48.9688C159.572 49.8059 159.273 50.5233 158.675 51.1213C158.077 51.7192 157.359 52.0181 156.522 52.0181H146.477C145.64 52.0181 144.923 51.7192 144.325 51.1213C143.727 50.5233 143.428 49.8059 143.428 48.9688V38.9239C143.428 38.0868 143.727 37.3693 144.325 36.7714C144.923 36.1735 145.64 35.8746 146.477 35.8746ZM164.415 35.8746H174.46C175.297 35.8746 176.014 36.1735 176.612 36.7714C177.21 37.3693 177.509 38.0868 177.509 38.9239V48.9688C177.509 49.8059 177.21 50.5233 176.612 51.1213C176.014 51.7192 175.297 52.0181 174.46 52.0181H164.415C163.578 52.0181 162.86 51.7192 162.262 51.1213C161.664 50.5233 161.365 49.8059 161.365 48.9688V38.9239C161.365 38.0868 161.664 37.3693 162.262 36.7714C162.86 36.1735 163.578 35.8746 164.415 35.8746ZM110.603 53.8118H120.648C121.485 53.8118 122.202 54.1108 122.8 54.7087C123.398 55.3066 123.697 56.0241 123.697 56.8612V66.9061C123.697 67.7431 123.398 68.4606 122.8 69.0585C122.202 69.6564 121.485 69.9554 120.648 69.9554H110.603C109.766 69.9554 109.048 69.6564 108.45 69.0585C107.852 68.4606 107.553 67.7431 107.553 66.9061V56.8612C107.553 56.0241 107.852 55.3066 108.45 54.7087C109.048 54.1108 109.766 53.8118 110.603 53.8118ZM128.54 53.8118H138.585C139.422 53.8118 140.14 54.1108 140.737 54.7087C141.335 55.3066 141.634 56.0241 141.634 56.8612V66.9061C141.634 67.7431 141.335 68.4606 140.737 69.0585C140.14 69.6564 139.422 69.9554 138.585 69.9554H128.54C127.703 69.9554 126.986 69.6564 126.388 69.0585C125.79 68.4606 125.491 67.7431 125.491 66.9061V56.8612C125.491 56.0241 125.79 55.3066 126.388 54.7087C126.986 54.1108 127.703 53.8118 128.54 53.8118ZM182.352 53.8118H192.397C193.234 53.8118 193.951 54.1108 194.549 54.7087C195.147 55.3066 195.446 56.0241 195.446 56.8612V66.9061C195.446 67.7431 195.147 68.4606 194.549 69.0585C193.951 69.6564 193.234 69.9554 192.397 69.9554H182.352C181.515 69.9554 180.797 69.6564 180.199 69.0585C179.602 68.4606 179.303 67.7431 179.303 66.9061V56.8612C179.303 56.0241 179.602 55.3066 180.199 54.7087C180.797 54.1108 181.515 53.8118 182.352 53.8118ZM110.603 71.7491H120.648C121.485 71.7491 122.202 72.0481 122.8 72.646C123.398 73.2439 123.697 73.9614 123.697 74.7985V84.8433C123.697 85.6804 123.398 86.3979 122.8 86.9958C122.202 87.5937 121.485 87.8927 120.648 87.8927H110.603C109.766 87.8927 109.048 87.5937 108.45 86.9958C107.852 86.3979 107.553 85.6804 107.553 84.8433V74.7985C107.553 73.9614 107.852 73.2439 108.45 72.646C109.048 72.0481 109.766 71.7491 110.603 71.7491ZM182.352 71.7491H192.397C193.234 71.7491 193.951 72.0481 194.549 72.646C195.147 73.2439 195.446 73.9614 195.446 74.7985V84.8433C195.446 85.6804 195.147 86.3979 194.549 86.9958C193.951 87.5937 193.234 87.8927 192.397 87.8927H182.352C181.515 87.8927 180.797 87.5937 180.199 86.9958C179.602 86.3979 179.303 85.6804 179.303 84.8433V74.7985C179.303 73.9614 179.602 73.2439 180.199 72.646C180.797 72.0481 181.515 71.7491 182.352 71.7491ZM110.603 89.6864H120.648C121.485 89.6864 122.202 89.9854 122.8 90.5833C123.398 91.1812 123.697 91.8987 123.697 92.7357V102.781C123.697 103.618 123.398 104.335 122.8 104.933C122.202 105.531 121.485 105.83 120.648 105.83H110.603C109.766 105.83 109.048 105.531 108.45 104.933C107.852 104.335 107.553 103.618 107.553 102.781V92.7357C107.553 91.8987 107.852 91.1812 108.45 90.5833C109.048 89.9854 109.766 89.6864 110.603 89.6864ZM182.352 89.6864H192.397C193.234 89.6864 193.951 89.9854 194.549 90.5833C195.147 91.1812 195.446 91.8987 195.446 92.7357V102.781C195.446 103.618 195.147 104.335 194.549 104.933C193.951 105.531 193.234 105.83 192.397 105.83H182.352C181.515 105.83 180.797 105.531 180.199 104.933C179.602 104.335 179.303 103.618 179.303 102.781V92.7357C179.303 91.8987 179.602 91.1812 180.199 90.5833C180.797 89.9854 181.515 89.6864 182.352 89.6864ZM110.603 107.624H120.648C121.485 107.624 122.202 107.923 122.8 108.521C123.398 109.118 123.697 109.836 123.697 110.673V120.718C123.697 121.555 123.398 122.272 122.8 122.87C122.202 123.468 121.485 123.767 120.648 123.767H110.603C109.766 123.767 109.048 123.468 108.45 122.87C107.852 122.272 107.553 121.555 107.553 120.718V110.673C107.553 109.836 107.852 109.118 108.45 108.521C109.048 107.923 109.766 107.624 110.603 107.624ZM182.352 107.624H192.397C193.234 107.624 193.951 107.923 194.549 108.521C195.147 109.118 195.446 109.836 195.446 110.673V120.718C195.446 121.555 195.147 122.272 194.549 122.87C193.951 123.468 193.234 123.767 192.397 123.767H182.352C181.515 123.767 180.797 123.468 180.199 122.87C179.602 122.272 179.303 121.555 179.303 120.718V110.673C179.303 109.836 179.602 109.118 180.199 108.521C180.797 107.923 181.515 107.624 182.352 107.624Z" fill="white"/>
<path d="M20.9866 35.8745H31.0315C31.8686 35.8745 32.5861 36.1735 33.184 36.7714C33.7819 37.3693 34.0808 38.0868 34.0808 38.9239V48.9688C34.0808 49.8058 33.7819 50.5233 33.184 51.1212C32.5861 51.7191 31.8686 52.0181 31.0315 52.0181H20.9866C20.1495 52.0181 19.4321 51.7191 18.8341 51.1212C18.2362 50.5233 17.9373 49.8058 17.9373 48.9688V38.9239C17.9373 38.0868 18.2362 37.3693 18.8341 36.7714C19.4321 36.1735 20.1495 35.8745 20.9866 35.8745ZM38.9239 35.8745H48.9688C49.8058 35.8745 50.5233 36.1735 51.1212 36.7714C51.7192 37.3693 52.0181 38.0868 52.0181 38.9239V48.9688C52.0181 49.8058 51.7192 50.5233 51.1212 51.1212C50.5233 51.7191 49.8058 52.0181 48.9688 52.0181H38.9239C38.0868 52.0181 37.3693 51.7191 36.7714 51.1212C36.1735 50.5233 35.8746 49.8058 35.8746 48.9688V38.9239C35.8746 38.0868 36.1735 37.3693 36.7714 36.7714C37.3693 36.1735 38.0868 35.8745 38.9239 35.8745ZM56.8612 35.8745H66.9061C67.7431 35.8745 68.4606 36.1735 69.0585 36.7714C69.6564 37.3693 69.9554 38.0868 69.9554 38.9239V48.9688C69.9554 49.8058 69.6564 50.5233 69.0585 51.1212C68.4606 51.7191 67.7431 52.0181 66.9061 52.0181H56.8612C56.0241 52.0181 55.3066 51.7191 54.7087 51.1212C54.1108 50.5233 53.8118 49.8058 53.8118 48.9688V38.9239C53.8118 38.0868 54.1108 37.3693 54.7087 36.7714C55.3066 36.1735 56.0241 35.8745 56.8612 35.8745ZM74.7985 35.8745H84.8433C85.6804 35.8745 86.3979 36.1735 86.9958 36.7714C87.5937 37.3693 87.8927 38.0868 87.8927 38.9239V48.9688C87.8927 49.8058 87.5937 50.5233 86.9958 51.1212C86.3979 51.7191 85.6804 52.0181 84.8433 52.0181H74.7985C73.9614 52.0181 73.2439 51.7191 72.646 51.1212C72.0481 50.5233 71.7491 49.8058 71.7491 48.9688V38.9239C71.7491 38.0868 72.0481 37.3693 72.646 36.7714C73.2439 36.1735 73.9614 35.8745 74.7985 35.8745ZM3.04934 53.8118H13.0942C13.9313 53.8118 14.6488 54.1108 15.2467 54.7087C15.8446 55.3066 16.1436 56.0241 16.1436 56.8612V66.906C16.1436 67.7431 15.8446 68.4606 15.2467 69.0585C14.6488 69.6564 13.9313 69.9554 13.0942 69.9554H3.04934C2.21226 69.9554 1.49477 69.6564 0.896864 69.0585C0.298955 68.4606 0 67.7431 0 66.906V56.8612C0 56.0241 0.298955 55.3066 0.896864 54.7087C1.49477 54.1108 2.21226 53.8118 3.04934 53.8118ZM74.7985 53.8118H84.8433C85.6804 53.8118 86.3979 54.1108 86.9958 54.7087C87.5937 55.3066 87.8927 56.0241 87.8927 56.8612V66.906C87.8927 67.7431 87.5937 68.4606 86.9958 69.0585C86.3979 69.6564 85.6804 69.9554 84.8433 69.9554H74.7985C73.9614 69.9554 73.2439 69.6564 72.646 69.0585C72.0481 68.4606 71.7491 67.7431 71.7491 66.906V56.8612C71.7491 56.0241 72.0481 55.3066 72.646 54.7087C73.2439 54.1108 73.9614 53.8118 74.7985 53.8118ZM3.04934 71.7491H13.0942C13.9313 71.7491 14.6488 72.0481 15.2467 72.646C15.8446 73.2439 16.1436 73.9614 16.1436 74.7984V84.8433C16.1436 85.6804 15.8446 86.3979 15.2467 86.9958C14.6488 87.5937 13.9313 87.8927 13.0942 87.8927H3.04934C2.21226 87.8927 1.49477 87.5937 0.896864 86.9958C0.298955 86.3979 0 85.6804 0 84.8433V74.7984C0 73.9614 0.298955 73.2439 0.896864 72.646C1.49477 72.0481 2.21226 71.7491 3.04934 71.7491ZM74.7985 71.7491H84.8433C85.6804 71.7491 86.3979 72.0481 86.9958 72.646C87.5937 73.2439 87.8927 73.9614 87.8927 74.7984V84.8433C87.8927 85.6804 87.5937 86.3979 86.9958 86.9958C86.3979 87.5937 85.6804 87.8927 84.8433 87.8927H74.7985C73.9614 87.8927 73.2439 87.5937 72.646 86.9958C72.0481 86.3979 71.7491 85.6804 71.7491 84.8433V74.7984C71.7491 73.9614 72.0481 73.2439 72.646 72.646C73.2439 72.0481 73.9614 71.7491 74.7985 71.7491ZM20.9866 89.6864H31.0315C31.8686 89.6864 32.5861 89.9853 33.184 90.5833C33.7819 91.1812 34.0808 91.8987 34.0808 92.7357V102.781C34.0808 103.618 33.7819 104.335 33.184 104.933C32.5861 105.531 31.8686 105.83 31.0315 105.83H20.9866C20.1495 105.83 19.4321 105.531 18.8341 104.933C18.2362 104.335 17.9373 103.618 17.9373 102.781V92.7357C17.9373 91.8987 18.2362 91.1812 18.8341 90.5833C19.4321 89.9853 20.1495 89.6864 20.9866 89.6864ZM38.9239 89.6864H48.9688C49.8058 89.6864 50.5233 89.9853 51.1212 90.5833C51.7192 91.1812 52.0181 91.8987 52.0181 92.7357V102.781C52.0181 103.618 51.7192 104.335 51.1212 104.933C50.5233 105.531 49.8058 105.83 48.9688 105.83H38.9239C38.0868 105.83 37.3693 105.531 36.7714 104.933C36.1735 104.335 35.8746 103.618 35.8746 102.781V92.7357C35.8746 91.8987 36.1735 91.1812 36.7714 90.5833C37.3693 89.9853 38.0868 89.6864 38.9239 89.6864ZM56.8612 89.6864H66.9061C67.7431 89.6864 68.4606 89.9853 69.0585 90.5833C69.6564 91.1812 69.9554 91.8987 69.9554 92.7357V102.781C69.9554 103.618 69.6564 104.335 69.0585 104.933C68.4606 105.531 67.7431 105.83 66.9061 105.83H56.8612C56.0241 105.83 55.3066 105.531 54.7087 104.933C54.1108 104.335 53.8118 103.618 53.8118 102.781V92.7357C53.8118 91.8987 54.1108 91.1812 54.7087 90.5833C55.3066 89.9853 56.0241 89.6864 56.8612 89.6864ZM74.7985 89.6864H84.8433C85.6804 89.6864 86.3979 89.9853 86.9958 90.5833C87.5937 91.1812 87.8927 91.8987 87.8927 92.7357V102.781C87.8927 103.618 87.5937 104.335 86.9958 104.933C86.3979 105.531 85.6804 105.83 84.8433 105.83H74.7985C73.9614 105.83 73.2439 105.531 72.646 104.933C72.0481 104.335 71.7491 103.618 71.7491 102.781V92.7357C71.7491 91.8987 72.0481 91.1812 72.646 90.5833C73.2439 89.9853 73.9614 89.6864 74.7985 89.6864ZM74.7985 107.624H84.8433C85.6804 107.624 86.3979 107.923 86.9958 108.521C87.5937 109.118 87.8927 109.836 87.8927 110.673V120.718C87.8927 121.555 87.5937 122.272 86.9958 122.87C86.3979 123.468 85.6804 123.767 84.8433 123.767H74.7985C73.9614 123.767 73.2439 123.468 72.646 122.87C72.0481 122.272 71.7491 121.555 71.7491 120.718V110.673C71.7491 109.836 72.0481 109.118 72.646 108.521C73.2439 107.923 73.9614 107.624 74.7985 107.624ZM3.04934 125.561H13.0942C13.9313 125.561 14.6488 125.86 15.2467 126.458C15.8446 127.056 16.1436 127.773 16.1436 128.61V138.655C16.1436 139.492 15.8446 140.21 15.2467 140.808C14.6488 141.406 13.9313 141.704 13.0942 141.704H3.04934C2.21226 141.704 1.49477 141.406 0.896864 140.808C0.298955 140.21 0 139.492 0 138.655V128.61C0 127.773 0.298955 127.056 0.896864 126.458C1.49477 125.86 2.21226 125.561 3.04934 125.561ZM74.7985 125.561H84.8433C85.6804 125.561 86.3979 125.86 86.9958 126.458C87.5937 127.056 87.8927 127.773 87.8927 128.61V138.655C87.8927 139.492 87.5937 140.21 86.9958 140.808C86.3979 141.406 85.6804 141.704 84.8433 141.704H74.7985C73.9614 141.704 73.2439 141.406 72.646 140.808C72.0481 140.21 71.7491 139.492 71.7491 138.655V128.61C71.7491 127.773 72.0481 127.056 72.646 126.458C73.2439 125.86 73.9614 125.561 74.7985 125.561ZM20.9866 143.498H31.0315C31.8686 143.498 32.5861 143.797 33.184 144.395C33.7819 144.993 34.0808 145.71 34.0808 146.548V156.592C34.0808 157.43 33.7819 158.147 33.184 158.745C32.5861 159.343 31.8686 159.642 31.0315 159.642H20.9866C20.1495 159.642 19.4321 159.343 18.8341 158.745C18.2362 158.147 17.9373 157.43 17.9373 156.592V146.548C17.9373 145.71 18.2362 144.993 18.8341 144.395C19.4321 143.797 20.1495 143.498 20.9866 143.498ZM38.9239 143.498H48.9688C49.8058 143.498 50.5233 143.797 51.1212 144.395C51.7192 144.993 52.0181 145.71 52.0181 146.548V156.592C52.0181 157.43 51.7192 158.147 51.1212 158.745C50.5233 159.343 49.8058 159.642 48.9688 159.642H38.9239C38.0868 159.642 37.3693 159.343 36.7714 158.745C36.1735 158.147 35.8746 157.43 35.8746 156.592V146.548C35.8746 145.71 36.1735 144.993 36.7714 144.395C37.3693 143.797 38.0868 143.498 38.9239 143.498ZM56.8612 143.498H66.9061C67.7431 143.498 68.4606 143.797 69.0585 144.395C69.6564 144.993 69.9554 145.71 69.9554 146.548V156.592C69.9554 157.43 69.6564 158.147 69.0585 158.745C68.4606 159.343 67.7431 159.642 66.9061 159.642H56.8612C56.0241 159.642 55.3066 159.343 54.7087 158.745C54.1108 158.147 53.8118 157.43 53.8118 156.592V146.548C53.8118 145.71 54.1108 144.993 54.7087 144.395C55.3066 143.797 56.0241 143.498 56.8612 143.498Z" fill="white"/>
</svg>
